# This file uses centimeters as units for non-parametric coordinates.

mtllib DUATBOUND_BUILDINGTEST2.mtl
g default
v -122.394104 -10.588730 126.477020
v 125.459213 -10.588730 126.477020
v -132.799927 199.850235 136.506042
v 135.865036 199.850235 136.506042
v -132.799927 199.850235 -122.430481
v 135.865036 199.850235 -122.430481
v -122.394104 -10.588730 -112.401459
v 125.459213 -10.588730 -112.401459
v -118.937897 223.174225 115.290527
v 124.615013 223.174225 115.290527
v -124.763245 330.702026 120.675934
v 130.440369 330.702026 120.675934
v -124.763245 320.631317 -115.254059
v 130.440369 320.631317 -115.254059
v -118.937897 223.174225 -109.868652
v 124.615013 223.174225 -109.868652
v -154.525726 194.720657 170.223694
v 173.960403 194.720657 170.223694
v -154.525726 248.416809 170.223694
v 173.960403 248.416809 170.223694
v -154.525726 248.416809 -158.262512
v 173.960403 248.416809 -158.262512
v -154.525726 194.720657 -158.262512
v 173.960403 194.720657 -158.262512
v -130.482239 248.416809 146.180176
v 149.916992 248.416809 146.180176
v 149.916992 248.416809 -134.218979
v -130.482239 248.416809 -134.218979
v -129.164795 209.133881 144.862732
v 148.599533 209.133881 144.862732
v 148.599533 209.133881 -132.901535
v -129.164795 209.133881 -132.901535
v -137.767487 180.158112 151.101624
v 161.722778 180.158112 151.101624
v -141.999939 240.077240 155.209106
v 165.955231 240.077240 155.209106
v -141.999939 240.077240 -143.655212
v 165.955231 240.077240 -143.655212
v -137.767487 180.158112 -139.547699
v 161.722778 180.158112 -139.547699
v -130.658386 -5.621984 143.665039
v 145.796158 -5.621984 143.665039
v -126.073486 10.585020 139.264893
v 141.211273 10.585020 139.264893
v -126.073486 10.585020 -117.252060
v 141.211273 10.585020 -117.252060
v -130.658386 -5.621984 -121.652237
v 145.796158 -5.621984 -121.652237
v 128.234436 102.184738 56.538818
v 136.321655 102.184738 56.538818
v 144.408875 102.184738 56.538818
v 128.234436 115.826775 56.538818
v 136.321655 115.826775 56.538818
v 144.408875 115.826775 56.538818
v 128.234436 129.015366 56.529175
v 136.321655 129.015366 56.529175
v 144.408875 129.015366 56.529175
v 128.234436 128.362213 23.246063
v 136.321655 128.362213 23.246063
v 144.408875 128.362213 23.246063
v 128.234436 127.709061 -10.037079
v 136.321655 127.709061 -10.037079
v 144.408875 127.709061 -10.037079
v 128.234436 127.055908 -43.320190
v 136.321655 127.055908 -43.320190
v 144.408875 127.055908 -43.320190
v 128.234436 115.826775 -43.329803
v 136.321655 115.826775 -43.329803
v 144.408875 115.826775 -43.329803
v 128.234436 102.184738 -43.329803
v 136.321655 102.184738 -43.329803
v 144.408875 102.184738 -43.329803
v 128.234436 102.184738 -10.040283
v 136.321655 102.184738 -10.040283
v 144.408875 102.184738 -10.040283
v 128.234436 102.184738 23.249268
v 136.321655 102.184738 23.249268
v 144.408875 102.184738 23.249268
v 144.408875 115.826775 -10.040283
v 144.408875 115.826775 23.249268
v 128.234436 115.826775 -10.040283
v 128.234436 115.826775 23.249268
v 128.234436 13.260002 -43.329803
v 136.321655 13.260002 -43.329803
v 136.321655 13.260002 -10.040283
v 128.234436 13.260002 -10.040283
v 144.408875 13.260002 -43.329803
v 144.408875 13.260002 -10.040283
v 128.234436 13.260002 23.249268
v 136.321655 13.260002 23.249268
v 136.321655 13.260002 56.538818
v 128.234436 13.260002 56.538818
v 144.408875 13.260002 23.249268
v 144.408875 13.260002 56.538818
vt 0.375000 0.000000
vt 0.625000 0.000000
vt 0.375000 0.250000
vt 0.625000 0.250000
vt 0.375000 0.500000
vt 0.625000 0.500000
vt 0.375000 0.750000
vt 0.625000 0.750000
vt 0.375000 1.000000
vt 0.625000 1.000000
vt 0.875000 0.000000
vt 0.875000 0.250000
vt 0.125000 0.000000
vt 0.125000 0.250000
vt 0.375000 0.000000
vt 0.625000 0.000000
vt 0.625000 0.250000
vt 0.375000 0.250000
vt 0.625000 0.500000
vt 0.375000 0.500000
vt 0.625000 0.750000
vt 0.375000 0.750000
vt 0.625000 1.000000
vt 0.375000 1.000000
vt 0.875000 0.000000
vt 0.875000 0.250000
vt 0.125000 0.000000
vt 0.125000 0.250000
vt 0.375000 0.000000
vt 0.625000 0.000000
vt 0.625000 0.250000
vt 0.375000 0.250000
vt 0.375000 0.250000
vt 0.625000 0.250000
vt 0.625000 0.500000
vt 0.375000 0.500000
vt 0.375000 0.500000
vt 0.625000 0.500000
vt 0.625000 0.750000
vt 0.375000 0.750000
vt 0.625000 1.000000
vt 0.375000 1.000000
vt 0.875000 0.000000
vt 0.875000 0.250000
vt 0.125000 0.000000
vt 0.125000 0.250000
vt 0.625000 0.250000
vt 0.375000 0.250000
vt 0.625000 0.500000
vt 0.375000 0.500000
vt 0.375000 0.000000
vt 0.625000 0.000000
vt 0.625000 0.250000
vt 0.375000 0.250000
vt 0.625000 0.500000
vt 0.375000 0.500000
vt 0.625000 0.750000
vt 0.375000 0.750000
vt 0.625000 1.000000
vt 0.375000 1.000000
vt 0.875000 0.000000
vt 0.875000 0.250000
vt 0.125000 0.000000
vt 0.125000 0.250000
vt 0.375000 0.000000
vt 0.625000 0.000000
vt 0.625000 0.250000
vt 0.375000 0.250000
vt 0.625000 0.500000
vt 0.375000 0.500000
vt 0.625000 0.750000
vt 0.375000 0.750000
vt 0.625000 1.000000
vt 0.375000 1.000000
vt 0.875000 0.000000
vt 0.875000 0.250000
vt 0.125000 0.000000
vt 0.125000 0.250000
vt 0.375000 0.000000
vt 0.500000 0.000000
vt 0.500000 0.125000
vt 0.375000 0.125000
vt 0.625000 0.000000
vt 0.625000 0.125000
vt 0.500000 0.250000
vt 0.375000 0.250000
vt 0.625000 0.250000
vt 0.500000 0.333333
vt 0.375000 0.333333
vt 0.625000 0.333333
vt 0.500000 0.416667
vt 0.375000 0.416667
vt 0.625000 0.416667
vt 0.500000 0.500000
vt 0.375000 0.500000
vt 0.625000 0.500000
vt 0.500000 0.625000
vt 0.375000 0.625000
vt 0.625000 0.625000
vt 0.500000 0.750000
vt 0.375000 0.750000
vt 0.625000 0.750000
vt 0.375000 0.750000
vt 0.500000 0.750000
vt 0.500000 0.833333
vt 0.375000 0.833333
vt 0.625000 0.750000
vt 0.625000 0.833333
vt 0.375000 0.833333
vt 0.500000 0.833333
vt 0.500000 0.916667
vt 0.375000 0.916667
vt 0.625000 0.833333
vt 0.625000 0.916667
vt 0.375000 0.916667
vt 0.500000 0.916667
vt 0.500000 1.000000
vt 0.375000 1.000000
vt 0.625000 0.916667
vt 0.625000 1.000000
vt 0.791667 0.000000
vt 0.875000 0.000000
vt 0.875000 0.125000
vt 0.791667 0.125000
vt 0.708333 0.000000
vt 0.708333 0.125000
vt 0.875000 0.250000
vt 0.791667 0.250000
vt 0.708333 0.250000
vt 0.125000 0.000000
vt 0.208333 0.000000
vt 0.208333 0.125000
vt 0.125000 0.125000
vt 0.291667 0.000000
vt 0.291667 0.125000
vt 0.208333 0.250000
vt 0.125000 0.250000
vt 0.291667 0.250000
vt 0.500000 1.000000
vt 0.375000 1.000000
vt 0.625000 1.000000
vn 0.000000 -0.047604 0.998866
vn 0.000000 -0.047604 0.998866
vn 0.000000 -0.047604 0.998866
vn 0.000000 -0.047604 0.998866
vn 0.000000 1.000000 0.000000
vn 0.000000 1.000000 0.000000
vn 0.000000 1.000000 0.000000
vn 0.000000 1.000000 0.000000
vn 0.000000 -0.047604 -0.998866
vn 0.000000 -0.047604 -0.998866
vn 0.000000 -0.047604 -0.998866
vn 0.000000 -0.047604 -0.998866
vn 0.000000 -1.000000 0.000000
vn 0.000000 -1.000000 0.000000
vn 0.000000 -1.000000 0.000000
vn 0.000000 -1.000000 0.000000
vn 0.998780 -0.049388 0.000000
vn 0.998780 -0.049388 0.000000
vn 0.998780 -0.049388 0.000000
vn 0.998780 -0.049388 0.000000
vn -0.998780 -0.049388 0.000000
vn -0.998780 -0.049388 0.000000
vn -0.998780 -0.049388 0.000000
vn -0.998780 -0.049388 0.000000
vn 0.000000 -0.050021 0.998748
vn 0.000000 -0.050021 0.998748
vn 0.000000 -0.050021 0.998748
vn 0.000000 -0.050021 0.998748
vn 0.000000 0.999090 -0.042646
vn 0.000000 0.999090 -0.042646
vn 0.000000 0.999090 -0.042646
vn 0.000000 0.999090 -0.042646
vn 0.000000 -0.055175 -0.998477
vn 0.000000 -0.055175 -0.998477
vn 0.000000 -0.055175 -0.998477
vn 0.000000 -0.055175 -0.998477
vn 0.000000 -1.000000 0.000000
vn 0.000000 -1.000000 0.000000
vn 0.000000 -1.000000 0.000000
vn 0.000000 -1.000000 0.000000
vn 0.998388 -0.056745 0.001239
vn 0.998388 -0.056745 0.001239
vn 0.998388 -0.056745 0.001239
vn 0.998388 -0.056745 0.001239
vn -0.998388 -0.056745 0.001239
vn -0.998388 -0.056745 0.001239
vn -0.998388 -0.056745 0.001239
vn -0.998388 -0.056745 0.001239
vn 0.000000 0.000000 1.000000
vn 0.000000 0.000000 1.000000
vn 0.000000 0.000000 1.000000
vn 0.000000 0.000000 1.000000
vn 0.140848 0.979961 -0.140848
vn -0.140848 0.979961 -0.140848
vn -0.140848 0.979961 0.140848
vn 0.140848 0.979961 0.140848
vn 0.000000 0.000000 -1.000000
vn 0.000000 0.000000 -1.000000
vn 0.000000 0.000000 -1.000000
vn 0.000000 0.000000 -1.000000
vn 0.000000 -1.000000 0.000000
vn 0.000000 -1.000000 0.000000
vn 0.000000 -1.000000 0.000000
vn 0.000000 -1.000000 0.000000
vn 1.000000 0.000000 0.000000
vn 1.000000 0.000000 0.000000
vn 1.000000 0.000000 0.000000
vn 1.000000 0.000000 0.000000
vn -1.000000 0.000000 0.000000
vn -1.000000 0.000000 0.000000
vn -1.000000 0.000000 0.000000
vn -1.000000 0.000000 0.000000
vn 0.000000 1.000000 0.000000
vn 0.000000 1.000000 0.000000
vn -0.393201 0.831135 -0.393201
vn 0.393201 0.831136 -0.393201
vn 0.000000 1.000000 0.000000
vn -0.393201 0.831135 0.393201
vn 0.000000 1.000000 0.000000
vn 0.393201 0.831136 0.393201
vn 0.000000 -0.068390 0.997659
vn 0.000000 -0.068390 0.997659
vn 0.000000 -0.068390 0.997659
vn 0.000000 -0.068390 0.997659
vn 0.000000 1.000000 0.000000
vn 0.000000 1.000000 0.000000
vn 0.000000 1.000000 0.000000
vn 0.000000 1.000000 0.000000
vn 0.000000 -0.068390 -0.997659
vn 0.000000 -0.068390 -0.997659
vn 0.000000 -0.068390 -0.997659
vn 0.000000 -0.068390 -0.997659
vn 0.000000 -1.000000 0.000000
vn 0.000000 -1.000000 0.000000
vn 0.000000 -1.000000 0.000000
vn 0.000000 -1.000000 0.000000
vn 0.997515 -0.070460 0.000000
vn 0.997515 -0.070460 0.000000
vn 0.997515 -0.070460 0.000000
vn 0.997515 -0.070460 0.000000
vn -0.997515 -0.070460 0.000000
vn -0.997515 -0.070460 0.000000
vn -0.997515 -0.070460 0.000000
vn -0.997515 -0.070460 0.000000
vn 0.000000 0.262012 0.965065
vn 0.000000 0.262012 0.965065
vn 0.000000 0.262012 0.965065
vn 0.000000 0.262012 0.965065
vn 0.000000 1.000000 0.000000
vn 0.000000 1.000000 0.000000
vn 0.000000 1.000000 0.000000
vn 0.000000 1.000000 0.000000
vn 0.000000 0.262014 -0.965064
vn 0.000000 0.262013 -0.965064
vn 0.000000 0.262014 -0.965064
vn 0.000000 0.262013 -0.965064
vn 0.000000 -1.000000 0.000000
vn 0.000000 -1.000000 0.000000
vn 0.000000 -1.000000 0.000000
vn 0.000000 -1.000000 0.000000
vn 0.962237 0.272212 0.000000
vn 0.962237 0.272212 0.000000
vn 0.962237 0.272212 0.000000
vn 0.962237 0.272212 0.000000
vn -0.962237 0.272213 0.000000
vn -0.962237 0.272213 0.000000
vn -0.962237 0.272213 0.000000
vn -0.962237 0.272213 0.000000
vn 0.000000 0.000000 1.000000
vn 0.000000 0.000000 1.000000
vn 0.000000 0.000359 1.000000
vn 0.000000 0.000359 1.000000
vn 0.000000 0.000000 1.000000
vn 0.000000 0.000359 1.000000
vn 0.000000 0.000731 1.000000
vn 0.000000 0.000731 1.000000
vn 0.000000 0.000731 1.000000
vn 0.000000 0.999807 -0.019620
vn 0.000000 0.999808 -0.019620
vn 0.000000 0.999808 -0.019620
vn 0.000000 0.999807 -0.019620
vn 0.000000 0.999808 -0.019620
vn 0.000000 0.999808 -0.019620
vn 0.000000 0.999807 -0.019621
vn 0.000000 0.999807 -0.019620
vn 0.000000 0.999807 -0.019621
vn 0.000000 0.999807 -0.019621
vn 0.000000 0.999807 -0.019620
vn 0.000000 0.999808 -0.019621
vn 0.000000 0.000856 -1.000000
vn 0.000000 0.000856 -1.000000
vn 0.000000 0.000387 -1.000000
vn 0.000000 0.000387 -1.000000
vn 0.000000 0.000856 -1.000000
vn 0.000000 0.000387 -1.000000
vn 0.000000 0.000000 -1.000000
vn 0.000000 0.000000 -1.000000
vn 0.000000 0.000000 -1.000000
vn 0.000000 -1.000000 0.000000
vn 0.000000 -1.000000 0.000000
vn 0.000000 -1.000000 0.000000
vn 0.000000 -1.000000 0.000000
vn 0.000000 -1.000000 0.000000
vn 0.000000 -1.000000 0.000000
vn 0.000000 -1.000000 0.000000
vn 0.000000 -1.000000 0.000000
vn 0.000000 -1.000000 0.000000
vn 0.000000 -1.000000 0.000000
vn 0.000000 -1.000000 0.000000
vn 0.000000 -1.000000 0.000000
vn 0.000000 -1.000000 0.000000
vn 0.000000 -1.000000 0.000000
vn 0.000000 -1.000000 0.000000
vn 0.000000 -1.000000 0.000000
vn 0.000000 -1.000000 0.000000
vn 0.000000 -1.000000 0.000000
vn 1.000000 0.000000 0.000000
vn 1.000000 0.000000 0.000000
vn 1.000000 0.000000 0.000000
vn 1.000000 0.000000 0.000000
vn 1.000000 0.000000 0.000000
vn 1.000000 0.000000 0.000000
vn 1.000000 0.000000 0.000000
vn 1.000000 0.000001 0.000000
vn 1.000000 0.000001 0.000000
vn 1.000000 0.000001 0.000000
vn 1.000000 0.000001 0.000000
vn 1.000000 0.000001 0.000000
vn -1.000000 0.000000 0.000000
vn -1.000000 0.000000 0.000000
vn -1.000000 0.000000 0.000000
vn -1.000000 -0.000000 0.000000
vn -1.000000 0.000000 0.000000
vn -1.000000 0.000000 0.000000
vn -1.000000 0.000000 0.000000
vn -1.000000 0.000000 0.000000
vn -1.000000 0.000000 0.000000
vn -1.000000 -0.000000 0.000000
vn -1.000000 0.000001 0.000000
vn -1.000000 0.000001 0.000000
vn 0.000000 0.000000 -1.000000
vn 0.000000 0.000000 -1.000000
vn 0.000000 0.000000 -1.000000
vn 0.000000 0.000000 -1.000000
vn 0.000000 0.000000 1.000000
vn 0.000000 0.000000 1.000000
vn 0.000000 0.000000 1.000000
vn 0.000000 0.000000 1.000000
vn -1.000000 0.000000 0.000000
vn -1.000000 0.000000 0.000000
vn -1.000000 0.000000 0.000000
vn -1.000000 0.000000 0.000000
vn 0.000000 0.000000 -1.000000
vn 0.000000 0.000000 -1.000000
vn 0.000000 0.000000 -1.000000
vn 0.000000 0.000000 -1.000000
vn 1.000000 0.000000 0.000000
vn 1.000000 0.000000 0.000000
vn 1.000000 0.000000 0.000000
vn 1.000000 0.000000 0.000000
vn 0.000000 0.000000 1.000000
vn 0.000000 0.000000 1.000000
vn 0.000000 0.000000 1.000000
vn 0.000000 0.000000 1.000000
vn 0.000000 0.000000 -1.000000
vn 0.000000 0.000000 -1.000000
vn 0.000000 0.000000 -1.000000
vn 0.000000 0.000000 -1.000000
vn 0.000000 0.000000 1.000000
vn 0.000000 0.000000 1.000000
vn 0.000000 0.000000 1.000000
vn 0.000000 0.000000 1.000000
vn -1.000000 0.000000 0.000000
vn -1.000000 0.000000 0.000000
vn -1.000000 0.000000 0.000000
vn -1.000000 0.000000 0.000000
vn 0.000000 0.000000 -1.000000
vn 0.000000 0.000000 -1.000000
vn 0.000000 0.000000 -1.000000
vn 0.000000 0.000000 -1.000000
vn 1.000000 0.000000 0.000000
vn 1.000000 0.000000 0.000000
vn 1.000000 0.000000 0.000000
vn 1.000000 0.000000 0.000000
vn 0.000000 0.000000 1.000000
vn 0.000000 0.000000 1.000000
vn 0.000000 0.000000 1.000000
vn 0.000000 0.000000 1.000000
s off
g pCube24
usemtl initialShadingGroup
f 1/1/1 2/2/2 4/4/3 3/3/4
f 3/3/5 4/4/6 6/6/7 5/5/8
f 5/5/9 6/6/10 8/8/11 7/7/12
f 7/7/13 8/8/14 2/10/15 1/9/16
f 2/2/17 8/11/18 6/12/19 4/4/20
f 7/13/21 1/1/22 3/3/23 5/14/24
f 9/15/25 10/16/26 12/17/27 11/18/28
f 11/18/29 12/17/30 14/19/31 13/20/32
f 13/20/33 14/19/34 16/21/35 15/22/36
f 15/22/37 16/21/38 10/23/39 9/24/40
f 10/16/41 16/25/42 14/26/43 12/17/44
f 15/27/45 9/15/46 11/18/47 13/28/48
f 17/29/49 18/30/50 20/31/51 19/32/52
s 1
f 29/33/53 30/34/54 31/35/55 32/36/56
s off
f 21/37/57 22/38/58 24/39/59 23/40/60
f 23/40/61 24/39/62 18/41/63 17/42/64
f 18/30/65 24/43/66 22/44/67 20/31/68
f 23/45/69 17/29/70 19/32/71 21/46/72
s 1
f 19/32/73 20/31/74 26/47/75 25/48/76
f 20/31/74 22/38/77 27/49/78 26/47/75
f 22/38/77 21/37/79 28/50/80 27/49/78
f 21/37/79 19/32/73 25/48/76 28/50/80
f 25/48/76 26/47/75 30/34/54 29/33/53
f 26/47/75 27/49/78 31/35/55 30/34/54
f 27/49/78 28/50/80 32/36/56 31/35/55
f 28/50/80 25/48/76 29/33/53 32/36/56
s off
f 33/51/81 34/52/82 36/53/83 35/54/84
f 35/54/85 36/53/86 38/55/87 37/56/88
f 37/56/89 38/55/90 40/57/91 39/58/92
f 39/58/93 40/57/94 34/59/95 33/60/96
f 34/52/97 40/61/98 38/62/99 36/53/100
f 39/63/101 33/51/102 35/54/103 37/64/104
f 41/65/105 42/66/106 44/67/107 43/68/108
f 43/68/109 44/67/110 46/69/111 45/70/112
f 45/70/113 46/69/114 48/71/115 47/72/116
f 47/72/117 48/71/118 42/73/119 41/74/120
f 42/66/121 48/75/122 46/76/123 44/67/124
f 47/77/125 41/65/126 43/68/127 45/78/128
s 3
f 49/79/129 50/80/130 53/81/131 52/82/132
f 50/80/130 51/83/133 54/84/134 53/81/131
f 52/82/132 53/81/131 56/85/135 55/86/136
f 53/81/131 54/84/134 57/87/137 56/85/135
s 4
f 55/86/138 56/85/139 59/88/140 58/89/141
f 56/85/139 57/87/142 60/90/143 59/88/140
f 58/89/141 59/88/140 62/91/144 61/92/145
f 59/88/140 60/90/143 63/93/146 62/91/144
f 61/92/145 62/91/144 65/94/147 64/95/148
f 62/91/144 63/93/146 66/96/149 65/94/147
s 5
f 64/95/150 65/94/151 68/97/152 67/98/153
f 65/94/151 66/96/154 69/99/155 68/97/152
f 67/98/153 68/97/152 71/100/156 70/101/157
f 68/97/152 69/99/155 72/102/158 71/100/156
s 6
f 83/103/159 84/104/160 85/105/161 86/106/162
f 84/104/160 87/107/163 88/108/164 85/105/161
s 7
f 73/109/165 74/110/166 77/111/167 76/112/168
f 74/110/166 75/113/169 78/114/170 77/111/167
s 8
f 89/115/171 90/116/172 91/117/173 92/118/174
f 90/116/172 93/119/175 94/120/176 91/117/173
s 9
f 75/121/177 72/122/178 69/123/179 79/124/180
f 78/125/181 75/121/177 79/124/180 80/126/182
f 51/83/183 78/125/181 80/126/182 54/84/184
f 79/124/180 69/123/179 66/127/185 63/128/186
f 80/126/182 79/124/180 63/128/186 60/129/187
f 54/84/184 80/126/182 60/129/187 57/87/188
s 10
f 70/130/189 73/131/190 81/132/191 67/133/192
f 73/131/190 76/134/193 82/135/194 81/132/191
f 76/134/193 49/79/195 52/82/196 82/135/194
f 67/133/192 81/132/191 61/136/197 64/137/198
f 81/132/191 82/135/194 58/138/199 61/136/197
f 82/135/194 52/82/196 55/86/200 58/138/199
s off
f 70/101/201 71/100/202 84/104/203 83/103/204
f 74/110/205 73/109/206 86/106/207 85/105/208
f 73/109/209 70/101/210 83/103/211 86/106/212
f 71/100/213 72/102/214 87/107/215 84/104/216
f 72/102/217 75/113/218 88/108/219 87/107/220
f 75/113/221 74/110/222 85/105/223 88/108/224
f 76/112/225 77/111/226 90/116/227 89/115/228
f 50/139/229 49/140/230 92/118/231 91/117/232
f 49/140/233 76/112/234 89/115/235 92/118/236
f 77/111/237 78/114/238 93/119/239 90/116/240
f 78/114/241 51/141/242 94/120/243 93/119/244
f 51/141/245 50/139/246 91/117/247 94/120/248
