# This file uses centimeters as units for non-parametric coordinates.

mtllib DUATBOUND_ROCKTEST.mtl
g default
v 36.995625 14.403654 10.151763
v -41.871941 27.370033 49.883877
v -20.137764 10.352015 -10.724722
v 34.783894 -12.538184 -51.790127
v 82.561195 -16.311794 13.738008
v 12.300361 7.303607 53.370289
v -71.247887 -18.580919 70.250282
v -64.991920 7.495860 0.777370
v -17.151093 -43.233883 -66.207794
v 35.667004 -67.023338 -35.066296
v 22.161875 -57.277786 58.432259
v -22.320265 -36.701496 3.768391
vt 1.000000 0.500000
vt 0.838104 0.676208
vt 0.088104 0.823792
vt 0.176208 0.500000
vt 0.088104 0.176208
vt 0.838104 0.323792
vt 0.676208 0.500000
vt 0.588104 0.823792
vt 0.338104 0.676208
vt 0.338104 0.323792
vt 0.588104 0.176208
vt 0.500000 0.500000
vt 1.088104 0.823792
vt 1.176208 0.500000
vt 1.088104 0.176208
vn 0.027029 0.964896 -0.261236
vn 0.027029 0.964896 -0.261236
vn 0.027029 0.964896 -0.261236
vn 0.081412 0.912902 -0.399977
vn 0.081412 0.912902 -0.399977
vn 0.081412 0.912902 -0.399977
vn 0.542176 0.763281 -0.351351
vn 0.542176 0.763281 -0.351351
vn 0.542176 0.763281 -0.351351
vn 0.488611 0.772252 0.406062
vn 0.488611 0.772252 0.406062
vn 0.488611 0.772252 0.406062
vn 0.310198 0.893730 0.324073
vn 0.310198 0.893731 0.324073
vn 0.310198 0.893731 0.324073
vn -0.140306 0.939008 -0.313973
vn -0.140306 0.939007 -0.313973
vn -0.140306 0.939008 -0.313973
vn -0.221282 0.695487 -0.683617
vn -0.221282 0.695487 -0.683617
vn -0.221282 0.695487 -0.683617
vn 0.792018 -0.167371 -0.587107
vn 0.792017 -0.167371 -0.587107
vn 0.792018 -0.167371 -0.587107
vn 0.522751 0.145660 0.839949
vn 0.522751 0.145660 0.839949
vn 0.522751 0.145660 0.839949
vn 0.074939 0.363633 0.928523
vn 0.074939 0.363633 0.928523
vn 0.074939 0.363633 0.928523
vn -0.803404 0.577641 0.144473
vn -0.803404 0.577641 0.144473
vn -0.803404 0.577641 0.144473
vn -0.219662 0.695794 -0.683827
vn -0.219662 0.695794 -0.683827
vn -0.219662 0.695794 -0.683827
vn 0.399315 -0.263101 -0.878251
vn 0.399315 -0.263101 -0.878252
vn 0.399315 -0.263101 -0.878251
vn 0.636340 -0.752368 0.170335
vn 0.636340 -0.752368 0.170335
vn 0.636340 -0.752368 0.170335
vn 0.166455 0.102288 0.980729
vn 0.166455 0.102288 0.980729
vn 0.166455 0.102288 0.980729
vn -0.672777 -0.670689 -0.312327
vn -0.672777 -0.670689 -0.312327
vn -0.672777 -0.670689 -0.312327
vn -0.719759 -0.694126 0.011629
vn -0.719759 -0.694126 0.011629
vn -0.719759 -0.694126 0.011629
vn -0.435325 -0.898785 0.051745
vn -0.435325 -0.898785 0.051745
vn -0.435325 -0.898785 0.051745
vn -0.448194 -0.893485 0.028392
vn -0.448194 -0.893485 0.028392
vn -0.448194 -0.893485 0.028392
vn -0.386066 -0.921886 -0.032854
vn -0.386066 -0.921886 -0.032854
vn -0.386066 -0.921886 -0.032854
s off
g pPlatonic3
usemtl initialShadingGroup
f 1/1/1 3/13/2 2/2/3
f 1/1/4 4/14/5 3/13/6
f 1/1/7 5/15/8 4/14/9
f 1/1/10 6/6/11 5/15/12
f 1/1/13 2/2/14 6/6/15
f 2/2/16 3/13/17 8/8/18
f 3/3/19 4/4/20 9/9/21
f 4/4/22 5/5/23 10/10/24
f 5/15/25 6/6/26 11/11/27
f 6/6/28 2/2/29 7/7/30
f 2/2/31 8/8/32 7/7/33
f 3/3/34 9/9/35 8/8/36
f 4/4/37 10/10/38 9/9/39
f 5/5/40 11/11/41 10/10/42
f 6/6/43 7/7/44 11/11/45
f 7/7/46 8/8/47 12/12/48
f 8/8/49 9/9/50 12/12/51
f 9/9/52 10/10/53 12/12/54
f 10/10/55 11/11/56 12/12/57
f 11/11/58 7/7/59 12/12/60
