# This file uses centimeters as units for non-parametric coordinates.

mtllib DUATBOUND_BUILDINGTEST.mtl
g default
v -84.534439 104.057823 159.717926
v 40.103928 104.057823 159.717926
v -84.534439 121.026817 159.717926
v 40.103928 121.026817 159.717926
v -84.534439 121.026817 35.079552
v 40.103928 121.026817 35.079552
v -84.534439 104.057823 35.079552
v 40.103928 104.057823 35.079552
v -79.008026 114.996719 154.191498
v -79.008026 114.996712 40.605972
v 34.577507 114.996712 40.605972
v 34.577507 114.996719 154.191498
v -84.534439 106.210060 159.717926
v -84.534439 106.210060 35.079552
v 40.103928 106.210060 35.079552
v 40.103928 106.210060 159.717926
v 6.943863 47.000084 23.392342
v 53.174706 47.000084 23.392342
v 6.943863 54.025539 23.762207
v 53.174706 54.025539 23.762207
v 6.943863 56.623482 -25.584538
v 53.174706 56.623482 -25.584538
v 6.943863 49.598026 -25.954403
v 53.174706 49.598026 -25.954403
v -84.534447 104.057823 -36.442528
v 40.103928 104.057823 -36.442528
v -84.534447 121.026817 -36.442528
v 40.103928 121.026817 -36.442528
v -84.534447 121.026817 -161.080902
v 40.103928 121.026817 -161.080902
v -84.534447 104.057823 -161.080902
v 40.103928 104.057823 -161.080902
v -79.008018 114.996712 -41.968945
v -79.008018 114.996712 -155.554474
v 34.577507 114.996712 -155.554474
v 34.577507 114.996712 -41.968945
v -84.534447 106.210060 -36.442528
v -84.534447 106.210060 -161.080902
v 40.103928 106.210060 -161.080902
v 40.103928 106.210060 -36.442528
v -86.295578 2.984607 -37.990547
v 32.324192 2.984607 -37.990547
v -76.145729 111.690887 -48.140400
v 22.174339 111.690887 -48.140400
v -76.145729 111.690887 -146.460449
v 22.174339 111.690887 -146.460449
v -86.295578 2.984607 -156.610306
v 32.324192 2.984607 -156.610306
v -86.295578 2.984608 158.169907
v 32.324196 2.984608 158.169907
v -76.145721 111.690887 148.020050
v 22.174341 111.690887 148.020050
v -76.145721 111.690887 49.699993
v 22.174341 111.690887 49.699993
v -86.295578 2.984608 39.550140
v 32.324196 2.984608 39.550140
v -71.606361 1.869709 55.230099
v 23.834475 1.869709 55.230099
v -64.848747 82.734848 47.382202
v 17.076860 82.734848 47.382202
v -64.848747 82.734848 -47.761414
v 17.076860 82.734848 -47.761414
v -71.606361 1.869709 -55.609310
v 23.834475 1.869709 -55.609310
v -64.848747 82.734848 14.970386
v -71.606361 1.869709 17.471323
v 23.834475 1.869709 17.471323
v 17.076860 82.734848 14.970386
v -71.606361 1.869709 -22.145981
v -64.848747 82.734848 -19.036774
v 17.076860 82.734848 -19.036774
v 23.834475 1.869709 -22.145981
v -67.708328 48.515633 50.703148
v -67.708328 48.515633 16.028692
v -67.708328 48.515633 -20.352480
v -67.708328 48.515633 -51.082359
v 19.936441 48.515633 -51.082359
v 19.936441 48.515633 -20.352480
v 19.936441 48.515633 16.028692
v 19.936441 48.515633 50.703148
vt 0.375000 0.000000
vt 0.625000 0.000000
vt 0.375000 0.250000
vt 0.625000 0.250000
vt 0.375000 0.500000
vt 0.625000 0.500000
vt 0.375000 0.750000
vt 0.625000 0.750000
vt 0.375000 1.000000
vt 0.625000 1.000000
vt 0.875000 0.000000
vt 0.875000 0.250000
vt 0.125000 0.000000
vt 0.125000 0.250000
vt 0.375000 0.161160
vt 0.125000 0.161160
vt 0.375000 0.588840
vt 0.625000 0.588840
vt 0.875000 0.161160
vt 0.625000 0.161160
vt 0.375000 0.031708
vt 0.125000 0.031708
vt 0.375000 0.718292
vt 0.625000 0.718292
vt 0.875000 0.031708
vt 0.625000 0.031708
vt 0.375000 0.000000
vt 0.625000 0.000000
vt 0.625000 0.250000
vt 0.375000 0.250000
vt 0.625000 0.500000
vt 0.375000 0.500000
vt 0.625000 0.750000
vt 0.375000 0.750000
vt 0.625000 1.000000
vt 0.375000 1.000000
vt 0.875000 0.000000
vt 0.875000 0.250000
vt 0.125000 0.000000
vt 0.125000 0.250000
vt 0.375000 0.000000
vt 0.625000 0.000000
vt 0.625000 0.031708
vt 0.375000 0.031708
vt 0.375000 0.250000
vt 0.625000 0.250000
vt 0.625000 0.500000
vt 0.375000 0.500000
vt 0.375000 0.718292
vt 0.625000 0.718292
vt 0.625000 0.750000
vt 0.375000 0.750000
vt 0.625000 1.000000
vt 0.375000 1.000000
vt 0.875000 0.000000
vt 0.875000 0.031708
vt 0.125000 0.000000
vt 0.125000 0.031708
vt 0.125000 0.161160
vt 0.375000 0.161160
vt 0.125000 0.250000
vt 0.625000 0.588840
vt 0.375000 0.588840
vt 0.625000 0.161160
vt 0.875000 0.161160
vt 0.875000 0.250000
vt 0.375000 0.000000
vt 0.625000 0.000000
vt 0.625000 0.250000
vt 0.375000 0.250000
vt 0.625000 0.500000
vt 0.375000 0.500000
vt 0.625000 0.750000
vt 0.375000 0.750000
vt 0.625000 1.000000
vt 0.375000 1.000000
vt 0.875000 0.000000
vt 0.875000 0.250000
vt 0.125000 0.000000
vt 0.125000 0.250000
vt 0.375000 0.000000
vt 0.625000 0.000000
vt 0.625000 0.250000
vt 0.375000 0.250000
vt 0.625000 0.500000
vt 0.375000 0.500000
vt 0.625000 0.750000
vt 0.375000 0.750000
vt 0.625000 1.000000
vt 0.375000 1.000000
vt 0.875000 0.000000
vt 0.875000 0.250000
vt 0.125000 0.000000
vt 0.125000 0.250000
vt 0.375000 0.000000
vt 0.625000 0.000000
vt 0.625000 0.144209
vt 0.375000 0.144209
vt 0.375000 0.250000
vt 0.625000 0.250000
vt 0.625000 0.335166
vt 0.375000 0.335166
vt 0.375000 0.605791
vt 0.625000 0.605791
vt 0.625000 0.750000
vt 0.375000 0.750000
vt 0.375000 0.914834
vt 0.625000 0.914834
vt 0.625000 1.000000
vt 0.375000 1.000000
vt 0.710166 0.000000
vt 0.710166 0.144209
vt 0.289834 0.144209
vt 0.289834 0.000000
vt 0.125000 0.000000
vt 0.200477 0.000000
vt 0.200477 0.144209
vt 0.125000 0.144209
vt 0.625000 0.825477
vt 0.375000 0.825477
vt 0.875000 0.144209
vt 0.799523 0.144209
vt 0.799523 0.000000
vt 0.875000 0.000000
vt 0.375000 0.424523
vt 0.625000 0.424523
vt 0.625000 0.500000
vt 0.375000 0.500000
vt 0.289834 0.250000
vt 0.200477 0.250000
vt 0.125000 0.250000
vt 0.799523 0.250000
vt 0.875000 0.250000
vt 0.710166 0.250000
vn 0.000000 0.000000 1.000000
vn 0.000000 0.000000 1.000000
vn 0.000000 0.416660 0.909062
vn 0.000000 0.416660 0.909062
vn 0.000000 1.000000 0.000000
vn 0.000000 1.000000 0.000000
vn 0.000000 1.000000 0.000000
vn 0.000000 1.000000 0.000000
vn 0.000000 0.416660 -0.909063
vn 0.000000 0.416660 -0.909063
vn 0.000000 0.000000 -1.000000
vn 0.000000 0.000000 -1.000000
vn 0.000000 -1.000000 0.000000
vn 0.000000 -1.000000 0.000000
vn 0.000000 -1.000000 0.000000
vn 0.000000 -1.000000 0.000000
vn 1.000000 0.000000 0.000000
vn 1.000000 0.000000 0.000000
vn 0.909063 0.416660 0.000000
vn 0.909062 0.416660 0.000000
vn -1.000000 0.000000 0.000000
vn -1.000000 0.000000 0.000000
vn -0.909063 0.416659 -0.000000
vn -0.909063 0.416659 -0.000000
vn -0.999827 -0.018614 -0.000000
vn -0.999827 -0.018615 -0.000000
vn -0.737226 -0.675646 0.000000
vn -0.737226 -0.675646 0.000000
vn 0.000000 -0.675646 -0.737226
vn 0.000000 -0.675646 -0.737226
vn 0.000000 -0.018614 -0.999827
vn 0.000000 -0.018614 -0.999827
vn 0.999827 -0.018615 0.000000
vn 0.999827 -0.018614 0.000000
vn 0.737226 -0.675647 0.000000
vn 0.737226 -0.675647 0.000000
vn 0.000000 -0.018615 0.999827
vn 0.000000 -0.018615 0.999827
vn 0.000000 -0.675647 0.737225
vn 0.000000 -0.675647 0.737225
vn 0.000000 -0.052574 0.998617
vn 0.000000 -0.052574 0.998617
vn 0.000000 -0.052574 0.998617
vn 0.000000 -0.052574 0.998617
vn 0.000000 0.998617 0.052574
vn 0.000000 0.998617 0.052574
vn 0.000000 0.998617 0.052574
vn 0.000000 0.998617 0.052574
vn 0.000000 0.052574 -0.998617
vn 0.000000 0.052574 -0.998617
vn 0.000000 0.052574 -0.998617
vn 0.000000 0.052574 -0.998617
vn 0.000000 -0.998617 -0.052574
vn 0.000000 -0.998617 -0.052574
vn 0.000000 -0.998617 -0.052574
vn 0.000000 -0.998617 -0.052574
vn 1.000000 0.000000 0.000000
vn 1.000000 0.000000 0.000000
vn 1.000000 0.000000 0.000000
vn 1.000000 0.000000 0.000000
vn -1.000000 -0.000000 0.000000
vn -1.000000 -0.000000 0.000000
vn -1.000000 -0.000000 0.000000
vn -1.000000 -0.000000 0.000000
vn 0.000000 0.000000 1.000000
vn 0.000000 0.000000 1.000000
vn 0.000000 0.416660 0.909063
vn 0.000000 0.416660 0.909063
vn 0.000000 1.000000 0.000000
vn 0.000000 1.000000 0.000000
vn 0.000000 1.000000 0.000000
vn 0.000000 1.000000 0.000000
vn 0.000000 0.416660 -0.909062
vn 0.000000 0.416660 -0.909062
vn 0.000000 0.000000 -1.000000
vn 0.000000 0.000000 -1.000000
vn 0.000000 -1.000000 0.000000
vn 0.000000 -1.000000 0.000000
vn 0.000000 -1.000000 0.000000
vn 0.000000 -1.000000 0.000000
vn 1.000000 0.000000 0.000000
vn 1.000000 0.000000 0.000000
vn 0.909063 0.416660 0.000000
vn 0.909062 0.416660 0.000000
vn -1.000000 0.000000 0.000000
vn -1.000000 0.000000 0.000000
vn -0.909062 0.416661 0.000000
vn -0.909062 0.416661 0.000000
vn -0.999827 -0.018614 0.000000
vn -0.999827 -0.018614 0.000000
vn -0.737225 -0.675647 0.000000
vn -0.737225 -0.675647 0.000000
vn 0.000000 -0.675647 -0.737225
vn 0.000000 -0.675647 -0.737225
vn 0.000000 -0.018615 -0.999827
vn 0.000000 -0.018615 -0.999827
vn 0.999827 -0.018614 0.000000
vn 0.999827 -0.018614 0.000000
vn 0.737226 -0.675646 0.000000
vn 0.737226 -0.675646 0.000000
vn 0.000000 -0.018614 0.999827
vn 0.000000 -0.018614 0.999827
vn 0.000000 -0.675646 0.737226
vn 0.000000 -0.675646 0.737226
vn 0.000000 0.092965 0.995669
vn 0.000000 0.092965 0.995669
vn 0.000000 0.092965 0.995669
vn 0.000000 0.092965 0.995669
vn 0.000000 1.000000 0.000000
vn 0.000000 1.000000 0.000000
vn 0.000000 1.000000 0.000000
vn 0.000000 1.000000 0.000000
vn 0.000000 0.092965 -0.995669
vn 0.000000 0.092965 -0.995669
vn 0.000000 0.092965 -0.995669
vn 0.000000 0.092965 -0.995669
vn 0.000000 -1.000000 0.000000
vn 0.000000 -1.000000 0.000000
vn 0.000000 -1.000000 0.000000
vn 0.000000 -1.000000 0.000000
vn 0.995669 0.092965 0.000000
vn 0.995669 0.092965 0.000000
vn 0.995669 0.092965 0.000000
vn 0.995669 0.092965 0.000000
vn -0.995669 0.092965 0.000000
vn -0.995669 0.092965 0.000000
vn -0.995669 0.092965 0.000000
vn -0.995669 0.092965 0.000000
vn 0.000000 0.092965 0.995669
vn 0.000000 0.092965 0.995669
vn 0.000000 0.092965 0.995669
vn 0.000000 0.092965 0.995669
vn 0.000000 1.000000 0.000000
vn 0.000000 1.000000 0.000000
vn 0.000000 1.000000 0.000000
vn 0.000000 1.000000 0.000000
vn 0.000000 0.092965 -0.995669
vn 0.000000 0.092965 -0.995669
vn 0.000000 0.092965 -0.995669
vn 0.000000 0.092965 -0.995669
vn 0.000000 -1.000000 0.000000
vn 0.000000 -1.000000 0.000000
vn 0.000000 -1.000000 0.000000
vn 0.000000 -1.000000 0.000000
vn 0.995669 0.092965 0.000000
vn 0.995669 0.092965 0.000000
vn 0.995669 0.092965 0.000000
vn 0.995669 0.092965 0.000000
vn -0.995669 0.092965 0.000000
vn -0.995669 0.092965 0.000000
vn -0.995669 0.092965 0.000000
vn -0.995669 0.092965 0.000000
vn 0.000000 0.096595 0.995324
vn 0.000000 0.096595 0.995324
vn 0.000000 0.096595 0.995324
vn 0.000000 0.096595 0.995324
vn 0.000000 1.000000 0.000000
vn 0.000000 1.000000 0.000000
vn 0.000000 1.000000 0.000000
vn 0.000000 1.000000 0.000000
vn 0.000000 0.096595 -0.995324
vn 0.000000 0.096595 -0.995324
vn 0.000000 0.096595 -0.995324
vn 0.000000 0.096595 -0.995324
vn 0.000000 -1.000000 0.000000
vn 0.000000 -1.000000 0.000000
vn 0.000000 -1.000000 0.000000
vn 0.000000 -1.000000 0.000000
vn 0.996527 0.083276 0.000000
vn 0.996527 0.083276 0.000000
vn 0.996527 0.083276 0.000000
vn 0.996527 0.083276 0.000000
vn -0.996527 0.083276 0.000000
vn -0.996527 0.083276 0.000000
vn -0.996527 0.083276 0.000000
vn -0.996527 0.083276 0.000000
vn -0.996527 0.083276 0.000000
vn -0.996527 0.083276 0.000000
vn -0.996527 0.083276 0.000000
vn -0.996527 0.083276 0.000000
vn 0.000000 -1.000000 0.000000
vn 0.000000 -1.000000 0.000000
vn 0.000000 -1.000000 0.000000
vn 0.000000 -1.000000 0.000000
vn 0.996527 0.083276 0.000000
vn 0.996527 0.083276 0.000000
vn 0.996527 0.083276 0.000000
vn 0.996527 0.083276 0.000000
vn 0.000000 1.000000 0.000000
vn 0.000000 1.000000 0.000000
vn 0.000000 1.000000 0.000000
vn 0.000000 1.000000 0.000000
vn -0.996527 0.083276 0.000000
vn -0.996527 0.083276 0.000000
vn -0.996527 0.083276 0.000000
vn -0.996527 0.083276 0.000000
vn 0.000000 0.096595 -0.995324
vn 0.000000 0.096595 -0.995324
vn 0.996527 0.083276 0.000000
vn 0.996527 0.083276 0.000000
vn 0.996527 0.083276 0.000000
vn 0.996527 0.083276 0.000000
vn 0.000000 0.096595 0.995324
vn 0.000000 0.096595 0.995324
s 1
g DUATBOUND_BUILDINGTEST
usemtl initialShadingGroup
f 1/1/1 2/2/2 16/26/3 13/21/4
s off
f 3/3/5 4/4/6 6/6/7 5/5/8
s 2
f 14/23/9 15/24/10 8/8/11 7/7/12
s off
f 7/7/13 8/8/14 2/10/15 1/9/16
s 3
f 2/2/17 8/11/18 15/25/19 16/26/20
s 4
f 7/13/21 1/1/22 13/21/23 14/22/24
f 10/16/25 9/15/26 3/3/27 5/14/28
s 2
f 5/5/29 6/6/30 11/18/31 10/17/32
s 3
f 12/20/33 11/19/34 6/12/35 4/4/36
s 1
f 9/15/37 12/20/38 4/4/39 3/3/40
s 4
f 14/22/24 13/21/23 9/15/26 10/16/25
s 2
f 10/17/32 11/18/31 15/24/10 14/23/9
s 3
f 16/26/20 15/25/19 11/19/34 12/20/33
s 1
f 13/21/4 16/26/3 12/20/38 9/15/37
s off
f 17/27/41 18/28/42 20/29/43 19/30/44
f 19/30/45 20/29/46 22/31/47 21/32/48
f 21/32/49 22/31/50 24/33/51 23/34/52
f 23/34/53 24/33/54 18/35/55 17/36/56
f 18/28/57 24/37/58 22/38/59 20/29/60
f 23/39/61 17/27/62 19/30/63 21/40/64
s 5
f 25/41/65 26/42/66 40/43/67 37/44/68
s off
f 27/45/69 28/46/70 30/47/71 29/48/72
s 6
f 38/49/73 39/50/74 32/51/75 31/52/76
s off
f 31/52/77 32/51/78 26/53/79 25/54/80
s 7
f 26/42/81 32/55/82 39/56/83 40/43/84
s 8
f 31/57/85 25/41/86 37/44/87 38/58/88
f 34/59/89 33/60/90 27/45/91 29/61/92
s 6
f 29/48/93 30/47/94 35/62/95 34/63/96
s 7
f 36/64/97 35/65/98 30/66/99 28/46/100
s 5
f 33/60/101 36/64/102 28/46/103 27/45/104
s 8
f 38/58/88 37/44/87 33/60/90 34/59/89
s 6
f 34/63/96 35/62/95 39/50/74 38/49/73
s 7
f 40/43/84 39/56/83 35/65/98 36/64/97
s 5
f 37/44/68 40/43/67 36/64/102 33/60/101
s off
f 41/67/105 42/68/106 44/69/107 43/70/108
f 43/70/109 44/69/110 46/71/111 45/72/112
f 45/72/113 46/71/114 48/73/115 47/74/116
f 47/74/117 48/73/118 42/75/119 41/76/120
f 42/68/121 48/77/122 46/78/123 44/69/124
f 47/79/125 41/67/126 43/70/127 45/80/128
f 49/81/129 50/82/130 52/83/131 51/84/132
f 51/84/133 52/83/134 54/85/135 53/86/136
f 53/86/137 54/85/138 56/87/139 55/88/140
f 55/88/141 56/87/142 50/89/143 49/90/144
f 50/82/145 56/91/146 54/92/147 52/83/148
f 55/93/149 49/81/150 51/84/151 53/94/152
s 9
f 57/95/153 58/96/154 80/97/155 73/98/156
s 10
f 59/99/157 60/100/158 68/101/159 65/102/160
s 11
f 76/103/161 77/104/162 64/105/163 63/106/164
s 12
f 66/107/165 67/108/166 58/109/167 57/110/168
s 13
f 58/96/169 67/111/170 79/112/171 80/97/172
s 14
f 73/98/173 74/113/174 66/114/175 57/95/176
f 63/115/177 69/116/178 75/117/179 76/118/180
s 12
f 63/106/181 64/105/182 72/119/183 69/120/184
s 13
f 77/121/185 78/122/186 72/123/187 64/124/188
s 10
f 70/125/189 71/126/190 62/127/191 61/128/192
s 14
f 74/113/174 75/117/179 69/116/178 66/114/175
s 10
f 65/102/160 68/101/159 71/126/190 70/125/189
s 12
f 69/120/184 72/119/183 67/108/166 66/107/165
s 14
f 65/129/193 74/113/174 73/98/173 59/99/194
f 70/130/195 75/117/179 74/113/174 65/129/193
f 76/118/180 75/117/179 70/130/195 61/131/196
s 11
f 61/128/197 62/127/198 77/104/162 76/103/161
s 13
f 71/132/199 78/122/186 77/121/185 62/133/200
f 68/134/201 79/112/171 78/122/186 71/132/199
f 80/97/172 79/112/171 68/134/201 60/100/202
s 9
f 73/98/156 80/97/155 60/100/203 59/99/204
